<svg xmlns="http://www.w3.org/2000/svg" width="1400" height="1400" fill-rule="evenodd"><path d="M463.47 1006.775l-16.063 23.458c-35.474 50.487-74.92 97.54-120.873 138.895-8.7 7.83-18.17 14.8-27.012 22.482-3.885 3.376-5.75 2.396-8-1.64-11.074-19.766-19.198-40.707-25.238-62.482-20.555-74.095-24-149.728-19.364-225.938 1.228-20.178 3.332-40.448 9.104-60.05.388-1.315 1.23-2.92-.14-4.127-1.347-1.2-2.72-.1-4.082.313l-92.23 28.053c-4.644 1.438-3.717-1.247-3.755-3.647-.234-14.708 2.886-29.05 5.7-43.3 3.52-17.768 8.45-35.243 14.016-52.543 15.28-47.5 35.5-92.688 61.706-135.156 10.66-17.28 22.294-33.896 35.747-49.173 1.22-1.384 3.3-2.765 2.674-4.698-.807-2.54-3.553-1.466-5.477-1.764l-51.503-7.84c-5.438-.788-3.24-3.815-1.986-6.217 11.043-21.126 23.14-41.63 36.602-61.316 36.464-53.33 80.715-99.212 132.23-138.12 3.35-2.53 6.417-5.692 11.438-7.3-15.8 38.86-15.368 76.563 3.218 113.496 9.196 18.272 29.62 37.602 43.33 41.5-3.465-7.7-7-14.897-9.972-22.308-10.97-27.362-15.177-55.442-8.938-84.695 7.875-36.915 39.1-59.422 76.6-54.967 18.417 2.2 35.177 8.73 50.572 18.947 1.042.7 2.07 1.414 3.16 2.025.274.153.757-.07 2.423-.283-15.815-34.2-39.255-57.742-78.136-62.993 2.34-3.52 6.17-4.42 9.37-5.903 31.858-14.758 64.587-27.066 98.518-36.37 53.013-14.536 106.975-21.42 161.826-21.538 16.73-.035 33.476 1.166 50.198 2.1 5.766.32 10.546 3.738 15.363 6.622 27.575 16.517 50.585 38.326 71.873 62.128 1.156 1.293 1.876 4.042 4.118 3.04 2.13-.957.746-3.376.614-5.114-1.314-17.44-5.465-34.186-12.55-50.2-.495-1.12-1.63-2.215-.775-3.446.837-1.202 2.27-.834 3.48-.52 62.096 16.125 120.776 39.183 169.168 83.197 2.346 2.132 3.552 4.578 3.852 7.58 3.718 36.967 18.386 70.4 33.334 103.768.236.528.254 1.153.403 1.88-2.027.844-2.62-1.002-3.465-1.816-40.354-38.818-85.652-70.784-134.85-97.327-5.127-2.765-10.732-4.643-15.88-7.373-5.077-2.7-5.677-.44-6.3 4.095-2.076 15.124-5.203 30.026-12.242 43.788-3.794 7.42-4.022 7.5-10.966 2.686-33.878-23.433-68.6-45.36-105.588-63.76-10.187-5.068-19.275-2.535-28.546-.85-32.97 6-65.024 15.272-95.524 29.454-21.686 10.085-41.993 22.363-60.8 37.197-3.835 3.026-2.98 4.42.265 6.92 6.297 4.848 12.2 10.208 18.472 15.1 3.385 2.634 3.78 4.375-.633 5.877-31.498 10.72-57 30.188-79.33 54.313-1.38 1.493-3.656 2.955-2.94 5.146.7 2.1 3.294 1.16 5.035 1.433l36.015 5.373c3.272.46 5.194 1.34 5.5 5.25 2.533 31.233 18.986 54.133 43.604 72.065 23.092 16.82 49.125 24.505 77.466 25.22 22.628.57 45.233-.154 67.836-.975 30.466-1.106 60.686.217 90.254 8.474 4.53 1.267 8.952 2.938 14.063 3.575l-14.53-16.04C854.98 568.664 833.4 548.59 811.3 529c-8.712-7.724-18.6-10.2-29.574-11.527-18.824-2.28-37.658.166-56.493-.87-30.1-1.653-55.78-14.778-80.856-29.78-2.618-1.567-2.78-3.045-.204-5.237 21.914-18.648 46.554-31.7 74.23-40.137 16.572-5.052 29.87 1.527 43.838 6.908 20.48 7.9 40.132 17.595 58.08 30.396 3.04 2.167 4.452.235 6.38-1.38 11.05-9.273 23.438-15.982 37.526-19.385.407-.1.8-.232 1.22-.292 2.862-.42 6.825-2.18 8.34-.138 1.878 2.528-2.338 4.177-3.805 6.188-9.282 12.718-15.372 26.3-13.08 42.574.437 3.108 1.545 5.43 3.9 7.5 26.646 23.656 51.15 49.437 74.95 75.908 2.176 2.418 4.142 4.8 7.92 3.023 19.08-9.006 39.48-11.976 60.275-12.975 25.437-1.22 50.647-.123 75.065 8.064 4.02 1.348 7.854 3.257 12.314 5.132-.262-3.776-2.742-5.254-4.462-7.138-17.712-19.4-38.02-35.922-58.547-52.14-10.36-8.185-19.696-16.613-26.012-28.83-6.775-13.103-16.14-24.852-25.618-36.294-.797-.96-2.193-1.96-1.447-3.168 1.014-1.635 2.593-.526 3.882.027 15.024 6.447 29.326 14.173 41.93 24.676 3.3 2.742 5.188 2.938 8.116-.56 8.15-9.737 19.066-15.383 30.838-19.577 3.518-1.252 6.27-.64 8.964 2.162 9.887 10.28 15.867 22.383 17.983 36.477.35 2.32-.145 4.166-1.7 5.727-2.2 2.22-4.402 4.495-6.844 6.442-7.882 6.293-7.94 6.253-.706 13.9l35 36.902c.694.733 1.1 1.97 2.334 1.8 1.646-.24 1.55-1.77 1.716-2.938l3.288-23.62c.197-1.415-.072-3.362 1.527-3.845 1.844-.558 2.15 1.52 2.942 2.652 26.892 38.388 51.2 78.272 70.5 121.088 13.133 29.142 24.033 59.027 32.228 89.966 13.175 49.736 18.862 100.26 16.52 151.596-1.538 33.68-6.14 67-13.9 99.9-4.946 20.94-10.766 41.58-17.5 62.004-1.643 4.98-2.57 4.604-5.618 1.26l-39.188-42.45c-1.367-1.472-2.517-4.175-4.785-3.4-2.434.833-1.1 3.683-1.336 5.616-3.575 28.015-8.926 55.604-17.046 82.735-9.985 33.362-23.454 65.136-41.02 95.123-37.635 64.24-89.327 114.916-151.117 155.817-4.35 2.88-5.215 1.36-6.2-2.4l-15.915-61.228-1.214-4.86c-.792-3.634-2.17-4.293-5.497-1.965-39.696 27.774-83.28 47.618-129.327 62.07-23.1 7.255-46.78 12.35-70.764 16.272-10.25 1.677-20.316 1.846-30.5 1.92-24.298.176-48.617-.563-72.9.243-21.44.7-42-3.6-62.476-8.585-30.515-7.446-59.706-18.562-87.485-33.408-4.64-2.48-4.956-4.822-4.028-9.313 11.035-53.513 20.236-107.303 21.224-162.107.614-33.985-2.47-67.683-8.945-101.118-3.028-15.623-7.114-30.934-11.142-46.282-.6-2.302-.943-4.896-3.586-7.333zm546.933-287.762h-.08l.038-33.926c.024-2.985-.47-5.224-3.704-6.366-23.804-8.403-45.404-20.9-65.816-35.6-1.9-1.358-3.662-2.398-6.3-1.863-17.447 3.526-34.332 8.83-50.62 15.954-38.85 17-74.313 39.6-108 65.2-3.37 2.563-3.923 4.127-1.812 7.96l59.5 109.382c1.927 3.588 4.116 4.54 7.778 4.7 21.083.92 40.402-5.688 59.076-14.26 39.458-18.107 73.557-44.4 107.206-71.306 2.56-2.047 2.744-4.44 2.74-7.203l-.007-32.67zm14.95 115.305v1.144c-8.367 0-16.735.078-25.1-.04-3.34-.046-5.998 1.047-8.58 3.135-11.704 9.466-23.738 18.517-36.383 26.685-25.614 16.55-51.164 33.34-82.45 37.435-3.742.5-3.877 2.6-2.4 5.322l35.403 64.76c1.543 2.82 3.15 3.984 6.966 2.9 31.098-8.757 60.118-21.42 84.354-43.42 1.915-1.737 3.006-2.142 3.822.733.456 1.607 1.22 3.138 1.57 4.763 4.94 22.947 8.595 46.04 7.885 69.634-.062 1.97-1.07 4.7.988 5.74s3.68-1.414 5.286-2.593c35.935-26.313 55.8-62.886 66.705-105.07 1.166-4.5 3.195-8.87 1.6-14.056-5.867-19.183-14.783-36.673-27.096-52.52-2.73-3.514-5.54-4.914-9.993-4.674-7.5.405-15.062.1-22.597.1zm30.114-114.214h.165c0 9.003.672 18.074-.2 26.996-.854 8.87 2.686 14.818 8.616 20.85 18.52 18.836 35.753 38.745 46.875 63.12.44.966.678 2.194 1.868 2.22 1.7.038 2.373-1.395 3.04-2.736 7.976-16.022 12.84-32.976 15.304-50.666 3.35-24.07 2.066-47.96-2.163-71.828-3.62-20.428-9.282-40.2-17.158-59.382-1.7-4.168-3.137-3.953-6.1-1.535-14.607 11.905-30.124 22.528-46.354 32.08-3.14 1.848-4.065 4.047-4 7.585.236 11.094.086 22.197.086 33.296zm-43.12 37.847l1.22-.022v-76.145l-1.22.013v76.154zM651.935 25l34.838 54.95 42.812 67.1c3.076 4.917 4.966 4.785 8.664.794L842.187 36.18c1.57-1.685 3.038-3.504 4.8-4.95 1.675-1.365 2.283-4.9 4.968-3.916 2.14.785 1.143 3.77 1.285 5.74l7.505 105.846 1.956 22.843c13.352-16.893 26.386-32.162 40.645-46.308 14.4-14.274 29.495-27.74 46.478-40.562-.28 5.94-3.568 9.867-5.358 14.184-11.98 28.872-19.405 58.932-24.78 89.632-2.6 14.85-4.295 29.798-6.4 44.7-.38 2.694-.188 5.093-4.83 3.843-47.888-12.892-96.708-19.45-146.256-20.82-37.782-1.043-75.363 1.6-112.636 7.46-35.735 5.628-70.762 14.36-105.024 26.256-32.2 11.18-63.335 24.606-93.224 40.945-3.534 1.93-5.372 3.07-7.275-2.38-10.8-30.892-23.167-61.145-39.018-89.87-8.385-15.196-17.605-29.84-28.162-43.633-1.007-1.316-3.76-2.54-2.044-4.423 1.6-1.746 3.328.642 4.926 1.4 34.062 15.92 65.446 36.095 94.697 59.65.833.67 1.568 1.394 2.76.944 1.253-1.536.458-3.236.198-4.788l-8.188-48.208-9.275-58.2-2.462-16.1c-.188-1.47-1.54-3.465.53-4.5 1.576-.78 2.582.96 3.745 1.744l94.06 63.446 41.513 28.123c3.695 2.565 5.186 2.735 6.807-2.08L628.3 92.5 651.935 25z" fill="#3D185C"/><path d="M1012.345 757.95v-76.154l1.22-.013v76.145l-1.22.022z" fill="#34144A"/></svg>